<svg width="20" height="20" viewBox="0 0 20 20" fill="none" xmlns="http://www.w3.org/2000/svg">
<circle cx="10" cy="10" r="9" fill="#3F8CFF" stroke="white" stroke-width="2"/>
<path fill-rule="evenodd" clip-rule="evenodd" d="M10.0003 5.83334C11.104 5.83334 12.1665 6.27084 12.9457 7.05417C13.729 7.83792 14.167 8.89584 14.167 10.0042C14.167 11.4625 13.3999 12.8167 12.1499 13.5708C10.8999 14.325 9.3457 14.3667 8.05445 13.6792H8.04153C7.97022 13.6505 7.90682 13.6096 7.84375 13.5689C7.79666 13.5385 7.74975 13.5083 7.69987 13.4833C7.57112 13.4292 7.42487 13.4208 7.29195 13.4629C6.9832 13.5708 6.6707 13.6583 6.34987 13.7333C6.1832 13.7375 6.1332 13.6375 6.1332 13.475C6.2082 13.1458 6.3082 12.8204 6.42528 12.5042C6.4707 12.3667 6.45862 12.2208 6.38778 12.0913L6.30445 11.9292C5.9957 11.3417 5.83362 10.6875 5.83362 10.0254V10C5.83362 8.89584 6.2707 7.83334 7.05403 7.05417C7.83737 6.27084 8.8957 5.83334 10.0003 5.83334ZM8.07903 10.5375C7.7832 10.5375 7.5457 10.2958 7.5457 10.0042C7.5457 9.70833 7.7832 9.47083 8.07903 9.47083C8.3707 9.47083 8.61278 9.70833 8.61278 10.0042C8.61278 10.2958 8.3707 10.5375 8.07903 10.5375ZM9.46654 10.0042C9.46654 10.2958 9.70445 10.5375 10.0003 10.5375C10.2961 10.5375 10.5332 10.2958 10.5332 10.0042C10.5332 9.70833 10.2961 9.47083 10.0003 9.47083C9.70445 9.47083 9.46654 9.70833 9.46654 10.0042ZM11.3878 10.0042C11.3878 10.2958 11.629 10.5375 11.9207 10.5375C12.2165 10.5375 12.454 10.2958 12.454 10.0042C12.454 9.70833 12.2165 9.47083 11.9207 9.47083C11.629 9.47083 11.3878 9.70833 11.3878 10.0042Z" fill="white"/>
</svg>
