<svg width="20" height="20" viewBox="0 0 20 20" fill="none" xmlns="http://www.w3.org/2000/svg">
<g clip-path="url(#clip0_1475_7004)">
<circle cx="10" cy="10" r="9" fill="#FF754C" stroke="white" stroke-width="2"/>
<path fill-rule="evenodd" clip-rule="evenodd" d="M11.6041 6.04188C11.867 6.04188 12.1295 6.07896 12.3791 6.16271C13.917 6.66271 14.4712 8.35021 14.0083 9.82521C13.7458 10.579 13.3166 11.2669 12.7545 11.829C11.9499 12.6081 11.067 13.2998 10.1166 13.8956L10.0124 13.9585L9.90409 13.8915C8.95034 13.2998 8.06243 12.6081 7.25034 11.8248C6.69201 11.2627 6.26243 10.579 5.99576 9.82521C5.52493 8.35021 6.07909 6.66271 7.63368 6.15396C7.75451 6.11229 7.87909 6.08313 8.00409 6.06688H8.05409C8.17118 6.04979 8.28743 6.04188 8.40409 6.04188H8.44993C8.71243 6.04979 8.96659 6.09563 9.21284 6.17938H9.23743C9.25409 6.18729 9.26659 6.19604 9.27493 6.20396C9.36701 6.23354 9.45409 6.26688 9.53743 6.31271L9.69576 6.38354C9.73402 6.40395 9.77696 6.43513 9.81407 6.46207C9.83759 6.47914 9.85877 6.49452 9.87493 6.50438C9.88173 6.50839 9.88864 6.51242 9.89561 6.51649C9.93133 6.53734 9.96855 6.55907 9.99993 6.58313C10.4628 6.22938 11.0249 6.03771 11.6041 6.04188ZM12.7124 9.04194C12.8833 9.03736 13.0291 8.90028 13.0416 8.72486V8.67528C13.0541 8.09153 12.7004 7.56278 12.1624 7.35861C11.9916 7.29986 11.8041 7.39194 11.7416 7.56694C11.6833 7.74194 11.7749 7.93361 11.9499 7.99569C12.217 8.09569 12.3958 8.35861 12.3958 8.64986V8.66278C12.3879 8.75819 12.4166 8.85028 12.4749 8.92111C12.5333 8.99194 12.6208 9.03319 12.7124 9.04194Z" fill="white"/>
</g>
<defs>
<clipPath id="clip0_1475_7004">
<rect width="20" height="20" fill="white"/>
</clipPath>
</defs>
</svg>
