<svg width="20" height="20" viewBox="0 0 20 20" fill="none" xmlns="http://www.w3.org/2000/svg">
<g clip-path="url(#clip0_1475_7025)">
<circle cx="10" cy="10" r="9" fill="#7FBA7A" stroke="white" stroke-width="2"/>
<path fill-rule="evenodd" clip-rule="evenodd" d="M13.3928 9.38021L13.7137 11.876C13.9516 13.5052 13.0053 14.1677 11.7345 14.1677H8.28032C7.00573 14.1677 6.03032 13.7094 6.29282 11.876L6.61782 9.38021C6.66782 9.00938 6.84698 8.66354 7.12615 8.40938C7.33907 8.22229 7.61365 8.12188 7.89698 8.12188V8.02604C7.86365 7.25521 8.2599 6.52604 8.92615 6.13021C9.59282 5.73438 10.4262 5.73438 11.0928 6.13021C11.7595 6.52604 12.1512 7.25521 12.122 8.02604V8.12188C12.647 8.12188 13.2012 8.48854 13.3928 9.38021ZM8.53032 8.02605C8.53032 7.21771 9.18865 6.55938 10.0012 6.55938C10.8178 6.55938 11.4762 7.21771 11.4762 8.02605V8.11813H8.53032V8.02605ZM8.41781 9.83021C8.41781 10.0302 8.58448 10.1969 8.78865 10.1969C8.99281 10.1969 9.15531 10.0302 9.15531 9.83021C9.15531 9.62605 8.99281 9.46355 8.78865 9.46355C8.58448 9.46355 8.41781 9.62605 8.41781 9.83021ZM11.2053 10.1969C11.3012 10.1969 11.397 10.1594 11.4637 10.0885C11.5345 10.0219 11.572 9.92605 11.572 9.83021C11.572 9.62605 11.4053 9.46355 11.2053 9.46355C11.0016 9.46355 10.8345 9.62605 10.8345 9.83021C10.8345 10.0302 11.0016 10.1969 11.2053 10.1969Z" fill="white"/>
</g>
<defs>
<clipPath id="clip0_1475_7025">
<rect width="20" height="20" fill="white"/>
</clipPath>
</defs>
</svg>
